%TF.GenerationSoftware,KiCad,Pcbnew,9.0.2*%
%TF.CreationDate,2025-05-26T15:10:03-05:00*%
%TF.ProjectId,CommandPad,436f6d6d-616e-4645-9061-642e6b696361,1.0*%
%TF.SameCoordinates,Original*%
%TF.FileFunction,Soldermask,Top*%
%TF.FilePolarity,Negative*%
%FSLAX46Y46*%
G04 Gerber Fmt 4.6, Leading zero omitted, Abs format (unit mm)*
G04 Created by KiCad (PCBNEW 9.0.2) date 2025-05-26 15:10:03*
%MOMM*%
%LPD*%
G01*
G04 APERTURE LIST*
G04 Aperture macros list*
%AMRoundRect*
0 Rectangle with rounded corners*
0 $1 Rounding radius*
0 $2 $3 $4 $5 $6 $7 $8 $9 X,Y pos of 4 corners*
0 Add a 4 corners polygon primitive as box body*
4,1,4,$2,$3,$4,$5,$6,$7,$8,$9,$2,$3,0*
0 Add four circle primitives for the rounded corners*
1,1,$1+$1,$2,$3*
1,1,$1+$1,$4,$5*
1,1,$1+$1,$6,$7*
1,1,$1+$1,$8,$9*
0 Add four rect primitives between the rounded corners*
20,1,$1+$1,$2,$3,$4,$5,0*
20,1,$1+$1,$4,$5,$6,$7,0*
20,1,$1+$1,$6,$7,$8,$9,0*
20,1,$1+$1,$8,$9,$2,$3,0*%
G04 Aperture macros list end*
%ADD10R,1.600000X1.600000*%
%ADD11O,1.600000X1.600000*%
%ADD12R,1.600000X0.850000*%
%ADD13RoundRect,0.152400X1.063600X0.609600X-1.063600X0.609600X-1.063600X-0.609600X1.063600X-0.609600X0*%
%ADD14C,1.524000*%
%ADD15RoundRect,0.152400X-1.063600X-0.609600X1.063600X-0.609600X1.063600X0.609600X-1.063600X0.609600X0*%
%ADD16C,1.700000*%
%ADD17C,4.000000*%
%ADD18C,2.200000*%
%ADD19R,2.000000X2.000000*%
%ADD20C,2.000000*%
%ADD21R,3.200000X2.000000*%
%ADD22R,1.700000X1.700000*%
%ADD23O,1.700000X1.700000*%
%ADD24C,3.200000*%
G04 APERTURE END LIST*
D10*
%TO.C,D6*%
X151300000Y-107963689D03*
D11*
X151300000Y-115583689D03*
%TD*%
D10*
%TO.C,D2*%
X191680000Y-96900000D03*
D11*
X199300000Y-96900000D03*
%TD*%
D12*
%TO.C,DLED1*%
X154250000Y-98568094D03*
X154250000Y-100318094D03*
X157750000Y-100318094D03*
X157750000Y-98568094D03*
%TD*%
D13*
%TO.C,U1*%
X147545000Y-74150000D03*
D14*
X148380000Y-74150000D03*
D13*
X147545000Y-76690000D03*
D14*
X148380000Y-76690000D03*
D13*
X147545000Y-79230000D03*
D14*
X148380000Y-79230000D03*
D13*
X147545000Y-81770000D03*
D14*
X148380000Y-81770000D03*
D13*
X147545000Y-84310000D03*
D14*
X148380000Y-84310000D03*
D13*
X147545000Y-86850000D03*
D14*
X148380000Y-86850000D03*
D13*
X147545000Y-89390000D03*
D14*
X148380000Y-89390000D03*
X163620000Y-89390000D03*
D15*
X164455000Y-89390000D03*
D14*
X163620000Y-86850000D03*
D15*
X164455000Y-86850000D03*
D14*
X163620000Y-84310000D03*
D15*
X164455000Y-84310000D03*
D14*
X163620000Y-81770000D03*
D15*
X164455000Y-81770000D03*
D14*
X163620000Y-79230000D03*
D15*
X164455000Y-79230000D03*
D14*
X163620000Y-76690000D03*
D15*
X164455000Y-76690000D03*
D14*
X163620000Y-74150000D03*
D15*
X164455000Y-74150000D03*
%TD*%
D10*
%TO.C,D4*%
X160700000Y-107963689D03*
D11*
X160700000Y-115583689D03*
%TD*%
D10*
%TO.C,D3*%
X206280000Y-96900000D03*
D11*
X213900000Y-96900000D03*
%TD*%
D16*
%TO.C,S2*%
X197326250Y-109537500D03*
D17*
X202406250Y-109537500D03*
D16*
X207486250Y-109537500D03*
D18*
X204946250Y-104457500D03*
X198596250Y-106997500D03*
%TD*%
D16*
%TO.C,S4*%
X178276250Y-128587500D03*
D17*
X183356250Y-128587500D03*
D16*
X188436250Y-128587500D03*
D18*
X185896250Y-123507500D03*
X179546250Y-126047500D03*
%TD*%
D19*
%TO.C,SW1*%
X214000000Y-78600000D03*
D20*
X214000000Y-83600000D03*
X214000000Y-81100000D03*
D21*
X221500000Y-75500000D03*
X221500000Y-86700000D03*
D20*
X228500000Y-83600000D03*
X228500000Y-78600000D03*
%TD*%
D10*
%TO.C,D5*%
X156000000Y-107963689D03*
D11*
X156000000Y-115583689D03*
%TD*%
D22*
%TO.C,J1*%
X207500000Y-76190000D03*
D23*
X207500000Y-78730000D03*
X207500000Y-81270000D03*
X207500000Y-83810000D03*
%TD*%
D16*
%TO.C,S3*%
X216376250Y-109537500D03*
D17*
X221456250Y-109537500D03*
D16*
X226536250Y-109537500D03*
D18*
X223996250Y-104457500D03*
X217646250Y-106997500D03*
%TD*%
D16*
%TO.C,S6*%
X216376250Y-128587500D03*
D17*
X221456250Y-128587500D03*
D16*
X226536250Y-128587500D03*
D18*
X223996250Y-123507500D03*
X217646250Y-126047500D03*
%TD*%
D16*
%TO.C,S1*%
X178276250Y-109537500D03*
D17*
X183356250Y-109537500D03*
D16*
X188436250Y-109537500D03*
D18*
X185896250Y-104457500D03*
X179546250Y-106997500D03*
%TD*%
D16*
%TO.C,S5*%
X197326250Y-128587500D03*
D17*
X202406250Y-128587500D03*
D16*
X207486250Y-128587500D03*
D18*
X204946250Y-123507500D03*
X198596250Y-126047500D03*
%TD*%
D10*
%TO.C,D7*%
X220880000Y-96900000D03*
D11*
X228500000Y-96900000D03*
%TD*%
D24*
%TO.C,M3x16mm*%
X167576505Y-97319477D03*
%TD*%
D10*
%TO.C,D1*%
X177080000Y-96900000D03*
D11*
X184700000Y-96900000D03*
%TD*%
M02*
