%TF.GenerationSoftware,KiCad,Pcbnew,9.0.2*%
%TF.CreationDate,2025-05-26T15:10:03-05:00*%
%TF.ProjectId,CommandPad,436f6d6d-616e-4645-9061-642e6b696361,1.0*%
%TF.SameCoordinates,Original*%
%TF.FileFunction,Copper,L1,Top*%
%TF.FilePolarity,Positive*%
%FSLAX46Y46*%
G04 Gerber Fmt 4.6, Leading zero omitted, Abs format (unit mm)*
G04 Created by KiCad (PCBNEW 9.0.2) date 2025-05-26 15:10:03*
%MOMM*%
%LPD*%
G01*
G04 APERTURE LIST*
G04 Aperture macros list*
%AMRoundRect*
0 Rectangle with rounded corners*
0 $1 Rounding radius*
0 $2 $3 $4 $5 $6 $7 $8 $9 X,Y pos of 4 corners*
0 Add a 4 corners polygon primitive as box body*
4,1,4,$2,$3,$4,$5,$6,$7,$8,$9,$2,$3,0*
0 Add four circle primitives for the rounded corners*
1,1,$1+$1,$2,$3*
1,1,$1+$1,$4,$5*
1,1,$1+$1,$6,$7*
1,1,$1+$1,$8,$9*
0 Add four rect primitives between the rounded corners*
20,1,$1+$1,$2,$3,$4,$5,0*
20,1,$1+$1,$4,$5,$6,$7,0*
20,1,$1+$1,$6,$7,$8,$9,0*
20,1,$1+$1,$8,$9,$2,$3,0*%
G04 Aperture macros list end*
%TA.AperFunction,ComponentPad*%
%ADD10R,1.600000X1.600000*%
%TD*%
%TA.AperFunction,ComponentPad*%
%ADD11O,1.600000X1.600000*%
%TD*%
%TA.AperFunction,SMDPad,CuDef*%
%ADD12R,1.600000X0.850000*%
%TD*%
%TA.AperFunction,SMDPad,CuDef*%
%ADD13RoundRect,0.152400X1.063600X0.609600X-1.063600X0.609600X-1.063600X-0.609600X1.063600X-0.609600X0*%
%TD*%
%TA.AperFunction,ComponentPad*%
%ADD14C,1.524000*%
%TD*%
%TA.AperFunction,SMDPad,CuDef*%
%ADD15RoundRect,0.152400X-1.063600X-0.609600X1.063600X-0.609600X1.063600X0.609600X-1.063600X0.609600X0*%
%TD*%
%TA.AperFunction,ComponentPad*%
%ADD16C,2.200000*%
%TD*%
%TA.AperFunction,ComponentPad*%
%ADD17R,2.000000X2.000000*%
%TD*%
%TA.AperFunction,ComponentPad*%
%ADD18C,2.000000*%
%TD*%
%TA.AperFunction,ComponentPad*%
%ADD19R,3.200000X2.000000*%
%TD*%
%TA.AperFunction,ComponentPad*%
%ADD20R,1.700000X1.700000*%
%TD*%
%TA.AperFunction,ComponentPad*%
%ADD21O,1.700000X1.700000*%
%TD*%
%TA.AperFunction,ViaPad*%
%ADD22C,0.600000*%
%TD*%
%TA.AperFunction,Conductor*%
%ADD23C,0.200000*%
%TD*%
G04 APERTURE END LIST*
D10*
%TO.P,D6,1,K*%
%TO.N,ROW_1*%
X151300000Y-107963689D03*
D11*
%TO.P,D6,2,A*%
%TO.N,Net-(D6-A)*%
X151300000Y-115583689D03*
%TD*%
D10*
%TO.P,D2,1,K*%
%TO.N,ROW_0*%
X191680000Y-96900000D03*
D11*
%TO.P,D2,2,A*%
%TO.N,Net-(D2-A)*%
X199300000Y-96900000D03*
%TD*%
D12*
%TO.P,DLED1,1,DOUT*%
%TO.N,Net-(DLED1-DOUT)*%
X154250000Y-98568094D03*
%TO.P,DLED1,2,VSS*%
%TO.N,GND*%
X154250000Y-100318094D03*
%TO.P,DLED1,3,DIN*%
%TO.N,SK6812*%
X157750000Y-100318094D03*
%TO.P,DLED1,4,VDD*%
%TO.N,+5V*%
X157750000Y-98568094D03*
%TD*%
D13*
%TO.P,U1,1,GPIO26/ADC0/A0*%
%TO.N,SK6812*%
X147545000Y-74150000D03*
D14*
X148380000Y-74150000D03*
D13*
%TO.P,U1,2,GPIO27/ADC1/A1*%
%TO.N,ROW_0*%
X147545000Y-76690000D03*
D14*
X148380000Y-76690000D03*
D13*
%TO.P,U1,3,GPIO28/ADC2/A2*%
%TO.N,ROW_1*%
X147545000Y-79230000D03*
D14*
X148380000Y-79230000D03*
D13*
%TO.P,U1,4,GPIO29/ADC3/A3*%
%TO.N,COL_0*%
X147545000Y-81770000D03*
D14*
X148380000Y-81770000D03*
D13*
%TO.P,U1,5,GPIO6/SDA*%
%TO.N,COL_1*%
X147545000Y-84310000D03*
D14*
X148380000Y-84310000D03*
D13*
%TO.P,U1,6,GPIO7/SCL*%
%TO.N,COL_2*%
X147545000Y-86850000D03*
D14*
X148380000Y-86850000D03*
D13*
%TO.P,U1,7,GPIO0/TX*%
%TO.N,ROT_SWB*%
X147545000Y-89390000D03*
D14*
X148380000Y-89390000D03*
%TO.P,U1,8,GPIO1/RX*%
%TO.N,SDA*%
X163620000Y-89390000D03*
D15*
X164455000Y-89390000D03*
D14*
%TO.P,U1,9,GPIO2/SCK*%
%TO.N,SCL*%
X163620000Y-86850000D03*
D15*
X164455000Y-86850000D03*
D14*
%TO.P,U1,10,GPIO4/MISO*%
%TO.N,ROT_B*%
X163620000Y-84310000D03*
D15*
X164455000Y-84310000D03*
D14*
%TO.P,U1,11,GPIO3/MOSI*%
%TO.N,ROT_A*%
X163620000Y-81770000D03*
D15*
X164455000Y-81770000D03*
D14*
%TO.P,U1,12,3V3*%
%TO.N,unconnected-(U1-3V3-Pad12)*%
X163620000Y-79230000D03*
D15*
%TO.N,unconnected-(U1-3V3-Pad12)_1*%
X164455000Y-79230000D03*
D14*
%TO.P,U1,13,GND*%
%TO.N,GND*%
X163620000Y-76690000D03*
D15*
X164455000Y-76690000D03*
D14*
%TO.P,U1,14,VBUS*%
%TO.N,+5V*%
X163620000Y-74150000D03*
D15*
X164455000Y-74150000D03*
%TD*%
D10*
%TO.P,D4,1,K*%
%TO.N,ROW_1*%
X160700000Y-107963689D03*
D11*
%TO.P,D4,2,A*%
%TO.N,Net-(D4-A)*%
X160700000Y-115583689D03*
%TD*%
D10*
%TO.P,D3,1,K*%
%TO.N,ROW_0*%
X206280000Y-96900000D03*
D11*
%TO.P,D3,2,A*%
%TO.N,Net-(D3-A)*%
X213900000Y-96900000D03*
%TD*%
D16*
%TO.P,S2,1,1*%
%TO.N,COL_1*%
X204946250Y-104457500D03*
%TO.P,S2,2,2*%
%TO.N,Net-(D2-A)*%
X198596250Y-106997500D03*
%TD*%
%TO.P,S4,1,1*%
%TO.N,COL_0*%
X185896250Y-123507500D03*
%TO.P,S4,2,2*%
%TO.N,Net-(D4-A)*%
X179546250Y-126047500D03*
%TD*%
D17*
%TO.P,SW1,A,A*%
%TO.N,ROT_A*%
X214000000Y-78600000D03*
D18*
%TO.P,SW1,B,B*%
%TO.N,ROT_B*%
X214000000Y-83600000D03*
%TO.P,SW1,C,C*%
%TO.N,GND*%
X214000000Y-81100000D03*
D19*
%TO.P,SW1,MP*%
%TO.N,N/C*%
X221500000Y-75500000D03*
X221500000Y-86700000D03*
D18*
%TO.P,SW1,S1,S1*%
%TO.N,ROT_SWA*%
X228500000Y-83600000D03*
%TO.P,SW1,S2,S2*%
%TO.N,ROT_SWB*%
X228500000Y-78600000D03*
%TD*%
D10*
%TO.P,D5,1,K*%
%TO.N,ROW_1*%
X156000000Y-107963689D03*
D11*
%TO.P,D5,2,A*%
%TO.N,Net-(D5-A)*%
X156000000Y-115583689D03*
%TD*%
D20*
%TO.P,J1,1,GND*%
%TO.N,GND*%
X207500000Y-76190000D03*
D21*
%TO.P,J1,2,VCC*%
%TO.N,+5V*%
X207500000Y-78730000D03*
%TO.P,J1,3,SCL*%
%TO.N,SCL*%
X207500000Y-81270000D03*
%TO.P,J1,4,SDA*%
%TO.N,SDA*%
X207500000Y-83810000D03*
%TD*%
D16*
%TO.P,S3,1,1*%
%TO.N,COL_2*%
X223996250Y-104457500D03*
%TO.P,S3,2,2*%
%TO.N,Net-(D3-A)*%
X217646250Y-106997500D03*
%TD*%
%TO.P,S6,1,1*%
%TO.N,COL_2*%
X223996250Y-123507500D03*
%TO.P,S6,2,2*%
%TO.N,Net-(D6-A)*%
X217646250Y-126047500D03*
%TD*%
%TO.P,S1,1,1*%
%TO.N,COL_0*%
X185896250Y-104457500D03*
%TO.P,S1,2,2*%
%TO.N,Net-(D1-A)*%
X179546250Y-106997500D03*
%TD*%
%TO.P,S5,1,1*%
%TO.N,COL_1*%
X204946250Y-123507500D03*
%TO.P,S5,2,2*%
%TO.N,Net-(D5-A)*%
X198596250Y-126047500D03*
%TD*%
D10*
%TO.P,D7,1,K*%
%TO.N,ROW_0*%
X220880000Y-96900000D03*
D11*
%TO.P,D7,2,A*%
%TO.N,ROT_SWA*%
X228500000Y-96900000D03*
%TD*%
D10*
%TO.P,D1,1,K*%
%TO.N,ROW_0*%
X177080000Y-96900000D03*
D11*
%TO.P,D1,2,A*%
%TO.N,Net-(D1-A)*%
X184700000Y-96900000D03*
%TD*%
D22*
%TO.N,Net-(D1-A)*%
X188000000Y-93500000D03*
%TO.N,ROW_0*%
X168750000Y-91250000D03*
%TO.N,Net-(D2-A)*%
X202500000Y-93500000D03*
%TO.N,Net-(D3-A)*%
X216750000Y-93750000D03*
%TO.N,Net-(D6-A)*%
X167976798Y-117307891D03*
%TO.N,Net-(DLED1-DOUT)*%
X150500000Y-96750000D03*
%TO.N,GND*%
X161250000Y-93500000D03*
X166750000Y-114500000D03*
X169500000Y-87250000D03*
%TO.N,+5V*%
X159750000Y-103750000D03*
X160500000Y-85187000D03*
X146750000Y-108500000D03*
X162500000Y-93500000D03*
X171000000Y-87500000D03*
X151295000Y-128650000D03*
%TO.N,SCL*%
X172000000Y-88500000D03*
%TO.N,COL_0*%
X168000000Y-114500000D03*
%TO.N,COL_1*%
X151000000Y-84500000D03*
%TO.N,ROT_A*%
X173250000Y-85500000D03*
%TO.N,ROT_SWB*%
X165250000Y-92250000D03*
%TD*%
D23*
%TO.N,Net-(D1-A)*%
X188000000Y-93600000D02*
X188000000Y-93500000D01*
X184700000Y-96900000D02*
X188000000Y-93600000D01*
%TO.N,ROW_0*%
X219779000Y-98001000D02*
X220880000Y-96900000D01*
X162940000Y-91250000D02*
X168750000Y-91250000D01*
X148380000Y-76690000D02*
X162940000Y-91250000D01*
X190579000Y-98001000D02*
X191680000Y-96900000D01*
X205179000Y-98001000D02*
X206280000Y-96900000D01*
X191680000Y-96900000D02*
X192781000Y-98001000D01*
X206280000Y-96900000D02*
X207381000Y-98001000D01*
X207381000Y-98001000D02*
X219779000Y-98001000D01*
X178181000Y-98001000D02*
X190579000Y-98001000D01*
X192781000Y-98001000D02*
X205179000Y-98001000D01*
X177080000Y-96900000D02*
X178181000Y-98001000D01*
%TO.N,Net-(D2-A)*%
X199300000Y-96900000D02*
X202500000Y-93700000D01*
X202500000Y-93700000D02*
X202500000Y-93500000D01*
%TO.N,Net-(D3-A)*%
X216750000Y-94050000D02*
X216750000Y-93750000D01*
X213900000Y-96900000D02*
X216750000Y-94050000D01*
%TO.N,ROW_1*%
X145000000Y-98250000D02*
X145000000Y-95250000D01*
X157713689Y-107963689D02*
X145000000Y-95250000D01*
X145000000Y-95250000D02*
X145000000Y-81532370D01*
X156000000Y-107963689D02*
X154713689Y-107963689D01*
X154713689Y-107963689D02*
X145000000Y-98250000D01*
X160700000Y-107963689D02*
X157713689Y-107963689D01*
X151300000Y-107963689D02*
X145000000Y-101663689D01*
X145000000Y-101663689D02*
X145000000Y-98250000D01*
X145000000Y-81532370D02*
X147302370Y-79230000D01*
X147302370Y-79230000D02*
X148380000Y-79230000D01*
%TO.N,Net-(D4-A)*%
X179546250Y-126047500D02*
X169082439Y-115583689D01*
X169082439Y-115583689D02*
X160700000Y-115583689D01*
%TO.N,Net-(D5-A)*%
X168202125Y-116684689D02*
X157101000Y-116684689D01*
X178965936Y-127448500D02*
X168202125Y-116684689D01*
X181527564Y-126047500D02*
X180126564Y-127448500D01*
X180126564Y-127448500D02*
X178965936Y-127448500D01*
X198596250Y-126047500D02*
X181527564Y-126047500D01*
X157101000Y-116684689D02*
X156000000Y-115583689D01*
%TO.N,Net-(D6-A)*%
X153024202Y-117307891D02*
X151300000Y-115583689D01*
X167976798Y-117307891D02*
X153024202Y-117307891D01*
%TO.N,ROT_SWA*%
X228500000Y-96900000D02*
X228500000Y-83600000D01*
%TO.N,Net-(DLED1-DOUT)*%
X152318094Y-98568094D02*
X150500000Y-96750000D01*
X154250000Y-98568094D02*
X152318094Y-98568094D01*
%TO.N,SK6812*%
X146028000Y-75888374D02*
X147766374Y-74150000D01*
X149811450Y-78688550D02*
X148875900Y-77753000D01*
X147766374Y-74150000D02*
X148380000Y-74150000D01*
X157024000Y-101044094D02*
X153149000Y-101044094D01*
X157750000Y-100318094D02*
X157024000Y-101044094D01*
X153149000Y-101044094D02*
X149811450Y-97706544D01*
X146289374Y-77753000D02*
X146028000Y-77491626D01*
X148875900Y-77753000D02*
X146289374Y-77753000D01*
X149811450Y-97706544D02*
X149811450Y-78688550D01*
X146028000Y-77491626D02*
X146028000Y-75888374D01*
%TO.N,GND*%
X161669094Y-92899000D02*
X154250000Y-100318094D01*
X154250000Y-100318094D02*
X161068094Y-93500000D01*
X166750000Y-114500000D02*
X163351000Y-111101000D01*
X214000000Y-81100000D02*
X209090000Y-76190000D01*
X162998943Y-92899000D02*
X161669094Y-92899000D01*
X169500000Y-87250000D02*
X169500000Y-81956374D01*
X161068094Y-93500000D02*
X161250000Y-93500000D01*
X163351000Y-93251057D02*
X162998943Y-92899000D01*
X164233626Y-76690000D02*
X163620000Y-76690000D01*
X163351000Y-111101000D02*
X163351000Y-93251057D01*
X209090000Y-76190000D02*
X207500000Y-76190000D01*
X169500000Y-81956374D02*
X164233626Y-76690000D01*
%TO.N,+5V*%
X160500000Y-85187000D02*
X160500000Y-77270000D01*
X157750000Y-98568094D02*
X159750000Y-100568094D01*
X146750000Y-124105000D02*
X151295000Y-128650000D01*
X164697630Y-74150000D02*
X163620000Y-74150000D01*
X171000000Y-87500000D02*
X171000000Y-80452370D01*
X159750000Y-100568094D02*
X159750000Y-103750000D01*
X160500000Y-77270000D02*
X163620000Y-74150000D01*
X171000000Y-80452370D02*
X164697630Y-74150000D01*
X146750000Y-108500000D02*
X146750000Y-124105000D01*
X157750000Y-98568094D02*
X157750000Y-98250000D01*
X157750000Y-98250000D02*
X162500000Y-93500000D01*
%TO.N,SCL*%
X165097000Y-88327000D02*
X163620000Y-86850000D01*
X172000000Y-88500000D02*
X171827000Y-88327000D01*
X171827000Y-88327000D02*
X165097000Y-88327000D01*
%TO.N,COL_0*%
X176888750Y-114500000D02*
X168000000Y-114500000D01*
X185896250Y-123507500D02*
X176888750Y-114500000D01*
%TO.N,COL_1*%
X163973900Y-92851000D02*
X155622900Y-84500000D01*
X168601000Y-92851000D02*
X163973900Y-92851000D01*
X155622900Y-84500000D02*
X151000000Y-84500000D01*
X198890750Y-98402000D02*
X174152000Y-98402000D01*
X174152000Y-98402000D02*
X168601000Y-92851000D01*
X204946250Y-104457500D02*
X198890750Y-98402000D01*
%TO.N,COL_2*%
X223996250Y-104457500D02*
X217353000Y-104457500D01*
X217353000Y-104457500D02*
X207911500Y-113899000D01*
X146028000Y-94490194D02*
X146028000Y-88124370D01*
X162950000Y-107799943D02*
X156595151Y-101445094D01*
X162950000Y-111549943D02*
X162950000Y-107799943D01*
X167703057Y-113899000D02*
X167351000Y-114251057D01*
X146028000Y-88124370D02*
X147302370Y-86850000D01*
X147302370Y-86850000D02*
X148380000Y-86850000D01*
X167351000Y-114251057D02*
X167351000Y-114748943D01*
X166501057Y-115101000D02*
X162950000Y-111549943D01*
X166998943Y-115101000D02*
X166501057Y-115101000D01*
X167351000Y-114748943D02*
X166998943Y-115101000D01*
X152982900Y-101445094D02*
X146028000Y-94490194D01*
X156595151Y-101445094D02*
X152982900Y-101445094D01*
X207911500Y-113899000D02*
X167703057Y-113899000D01*
%TO.N,ROT_A*%
X214000000Y-78600000D02*
X208487000Y-73087000D01*
X208487000Y-73087000D02*
X185663000Y-73087000D01*
X185663000Y-73087000D02*
X173250000Y-85500000D01*
%TO.N,ROT_SWB*%
X213461108Y-84901000D02*
X206112108Y-92250000D01*
X222199000Y-84901000D02*
X213461108Y-84901000D01*
X206112108Y-92250000D02*
X165250000Y-92250000D01*
X228500000Y-78600000D02*
X222199000Y-84901000D01*
%TO.N,ROT_B*%
X162557000Y-85373000D02*
X163620000Y-84310000D01*
X162557000Y-89830310D02*
X162557000Y-85373000D01*
X163179690Y-90453000D02*
X162557000Y-89830310D01*
X207147000Y-90453000D02*
X163179690Y-90453000D01*
X214000000Y-83600000D02*
X207147000Y-90453000D01*
%TD*%
M02*
