%TF.GenerationSoftware,KiCad,Pcbnew,9.0.2*%
%TF.CreationDate,2025-05-26T15:10:03-05:00*%
%TF.ProjectId,CommandPad,436f6d6d-616e-4645-9061-642e6b696361,1.0*%
%TF.SameCoordinates,Original*%
%TF.FileFunction,Copper,L2,Bot*%
%TF.FilePolarity,Positive*%
%FSLAX46Y46*%
G04 Gerber Fmt 4.6, Leading zero omitted, Abs format (unit mm)*
G04 Created by KiCad (PCBNEW 9.0.2) date 2025-05-26 15:10:03*
%MOMM*%
%LPD*%
G01*
G04 APERTURE LIST*
%TA.AperFunction,ComponentPad*%
%ADD10R,1.600000X1.600000*%
%TD*%
%TA.AperFunction,ComponentPad*%
%ADD11O,1.600000X1.600000*%
%TD*%
%TA.AperFunction,ComponentPad*%
%ADD12C,1.524000*%
%TD*%
%TA.AperFunction,ComponentPad*%
%ADD13C,2.200000*%
%TD*%
%TA.AperFunction,ComponentPad*%
%ADD14R,2.000000X2.000000*%
%TD*%
%TA.AperFunction,ComponentPad*%
%ADD15C,2.000000*%
%TD*%
%TA.AperFunction,ComponentPad*%
%ADD16R,3.200000X2.000000*%
%TD*%
%TA.AperFunction,ComponentPad*%
%ADD17R,1.700000X1.700000*%
%TD*%
%TA.AperFunction,ComponentPad*%
%ADD18O,1.700000X1.700000*%
%TD*%
%TA.AperFunction,SMDPad,CuDef*%
%ADD19R,1.600000X0.850000*%
%TD*%
%TA.AperFunction,ViaPad*%
%ADD20C,0.600000*%
%TD*%
%TA.AperFunction,Conductor*%
%ADD21C,0.200000*%
%TD*%
G04 APERTURE END LIST*
D10*
%TO.P,D6,1,K*%
%TO.N,ROW_1*%
X151300000Y-107963689D03*
D11*
%TO.P,D6,2,A*%
%TO.N,Net-(D6-A)*%
X151300000Y-115583689D03*
%TD*%
D10*
%TO.P,D2,1,K*%
%TO.N,ROW_0*%
X191680000Y-96900000D03*
D11*
%TO.P,D2,2,A*%
%TO.N,Net-(D2-A)*%
X199300000Y-96900000D03*
%TD*%
D12*
%TO.P,U1,1,GPIO26/ADC0/A0*%
%TO.N,SK6812*%
X148380000Y-74150000D03*
%TO.P,U1,2,GPIO27/ADC1/A1*%
%TO.N,ROW_0*%
X148380000Y-76690000D03*
%TO.P,U1,3,GPIO28/ADC2/A2*%
%TO.N,ROW_1*%
X148380000Y-79230000D03*
%TO.P,U1,4,GPIO29/ADC3/A3*%
%TO.N,COL_0*%
X148380000Y-81770000D03*
%TO.P,U1,5,GPIO6/SDA*%
%TO.N,COL_1*%
X148380000Y-84310000D03*
%TO.P,U1,6,GPIO7/SCL*%
%TO.N,COL_2*%
X148380000Y-86850000D03*
%TO.P,U1,7,GPIO0/TX*%
%TO.N,ROT_SWB*%
X148380000Y-89390000D03*
%TO.P,U1,8,GPIO1/RX*%
%TO.N,SDA*%
X163620000Y-89390000D03*
%TO.P,U1,9,GPIO2/SCK*%
%TO.N,SCL*%
X163620000Y-86850000D03*
%TO.P,U1,10,GPIO4/MISO*%
%TO.N,ROT_B*%
X163620000Y-84310000D03*
%TO.P,U1,11,GPIO3/MOSI*%
%TO.N,ROT_A*%
X163620000Y-81770000D03*
%TO.P,U1,12,3V3*%
%TO.N,unconnected-(U1-3V3-Pad12)*%
X163620000Y-79230000D03*
%TO.P,U1,13,GND*%
%TO.N,GND*%
X163620000Y-76690000D03*
%TO.P,U1,14,VBUS*%
%TO.N,+5V*%
X163620000Y-74150000D03*
%TD*%
D10*
%TO.P,D4,1,K*%
%TO.N,ROW_1*%
X160700000Y-107963689D03*
D11*
%TO.P,D4,2,A*%
%TO.N,Net-(D4-A)*%
X160700000Y-115583689D03*
%TD*%
D10*
%TO.P,D3,1,K*%
%TO.N,ROW_0*%
X206280000Y-96900000D03*
D11*
%TO.P,D3,2,A*%
%TO.N,Net-(D3-A)*%
X213900000Y-96900000D03*
%TD*%
D13*
%TO.P,S2,1,1*%
%TO.N,COL_1*%
X204946250Y-104457500D03*
%TO.P,S2,2,2*%
%TO.N,Net-(D2-A)*%
X198596250Y-106997500D03*
%TD*%
%TO.P,S4,1,1*%
%TO.N,COL_0*%
X185896250Y-123507500D03*
%TO.P,S4,2,2*%
%TO.N,Net-(D4-A)*%
X179546250Y-126047500D03*
%TD*%
D14*
%TO.P,SW1,A,A*%
%TO.N,ROT_A*%
X214000000Y-78600000D03*
D15*
%TO.P,SW1,B,B*%
%TO.N,ROT_B*%
X214000000Y-83600000D03*
%TO.P,SW1,C,C*%
%TO.N,GND*%
X214000000Y-81100000D03*
D16*
%TO.P,SW1,MP*%
%TO.N,N/C*%
X221500000Y-75500000D03*
X221500000Y-86700000D03*
D15*
%TO.P,SW1,S1,S1*%
%TO.N,ROT_SWA*%
X228500000Y-83600000D03*
%TO.P,SW1,S2,S2*%
%TO.N,ROT_SWB*%
X228500000Y-78600000D03*
%TD*%
D10*
%TO.P,D5,1,K*%
%TO.N,ROW_1*%
X156000000Y-107963689D03*
D11*
%TO.P,D5,2,A*%
%TO.N,Net-(D5-A)*%
X156000000Y-115583689D03*
%TD*%
D17*
%TO.P,J1,1,GND*%
%TO.N,GND*%
X207500000Y-76190000D03*
D18*
%TO.P,J1,2,VCC*%
%TO.N,+5V*%
X207500000Y-78730000D03*
%TO.P,J1,3,SCL*%
%TO.N,SCL*%
X207500000Y-81270000D03*
%TO.P,J1,4,SDA*%
%TO.N,SDA*%
X207500000Y-83810000D03*
%TD*%
D13*
%TO.P,S3,1,1*%
%TO.N,COL_2*%
X223996250Y-104457500D03*
%TO.P,S3,2,2*%
%TO.N,Net-(D3-A)*%
X217646250Y-106997500D03*
%TD*%
%TO.P,S6,1,1*%
%TO.N,COL_2*%
X223996250Y-123507500D03*
%TO.P,S6,2,2*%
%TO.N,Net-(D6-A)*%
X217646250Y-126047500D03*
%TD*%
%TO.P,S1,1,1*%
%TO.N,COL_0*%
X185896250Y-104457500D03*
%TO.P,S1,2,2*%
%TO.N,Net-(D1-A)*%
X179546250Y-106997500D03*
%TD*%
%TO.P,S5,1,1*%
%TO.N,COL_1*%
X204946250Y-123507500D03*
%TO.P,S5,2,2*%
%TO.N,Net-(D5-A)*%
X198596250Y-126047500D03*
%TD*%
D10*
%TO.P,D7,1,K*%
%TO.N,ROW_0*%
X220880000Y-96900000D03*
D11*
%TO.P,D7,2,A*%
%TO.N,ROT_SWA*%
X228500000Y-96900000D03*
%TD*%
D10*
%TO.P,D1,1,K*%
%TO.N,ROW_0*%
X177080000Y-96900000D03*
D11*
%TO.P,D1,2,A*%
%TO.N,Net-(D1-A)*%
X184700000Y-96900000D03*
%TD*%
D19*
%TO.P,DLED2,1,DOUT*%
%TO.N,unconnected-(DLED2-DOUT-Pad1)*%
X154795000Y-128650000D03*
%TO.P,DLED2,2,VSS*%
%TO.N,GND*%
X154795000Y-130400000D03*
%TO.P,DLED2,3,DIN*%
%TO.N,Net-(DLED1-DOUT)*%
X151295000Y-130400000D03*
%TO.P,DLED2,4,VDD*%
%TO.N,+5V*%
X151295000Y-128650000D03*
%TD*%
D20*
%TO.N,Net-(D1-A)*%
X188000000Y-93500000D03*
%TO.N,ROW_0*%
X168750000Y-91250000D03*
%TO.N,Net-(D2-A)*%
X202500000Y-93500000D03*
%TO.N,Net-(D3-A)*%
X216750000Y-93750000D03*
%TO.N,Net-(D6-A)*%
X167976798Y-117307891D03*
%TO.N,Net-(DLED1-DOUT)*%
X150500000Y-96750000D03*
%TO.N,GND*%
X161250000Y-93500000D03*
X166750000Y-114500000D03*
X169500000Y-87250000D03*
%TO.N,+5V*%
X159750000Y-103750000D03*
X160500000Y-85187000D03*
X146750000Y-108500000D03*
X162500000Y-93500000D03*
X171000000Y-87500000D03*
X151295000Y-128650000D03*
%TO.N,SCL*%
X172000000Y-88500000D03*
%TO.N,COL_0*%
X168000000Y-114500000D03*
%TO.N,COL_1*%
X151000000Y-84500000D03*
%TO.N,ROT_A*%
X173250000Y-85500000D03*
%TO.N,ROT_SWB*%
X165250000Y-92250000D03*
%TD*%
D21*
%TO.N,Net-(D1-A)*%
X188000000Y-98543750D02*
X179546250Y-106997500D01*
X188000000Y-93500000D02*
X188000000Y-98543750D01*
%TO.N,ROW_0*%
X168750000Y-91250000D02*
X169250000Y-91250000D01*
X169250000Y-91250000D02*
X174900000Y-96900000D01*
X174900000Y-96900000D02*
X177080000Y-96900000D01*
%TO.N,Net-(D2-A)*%
X202500000Y-93500000D02*
X202500000Y-103093750D01*
X202500000Y-103093750D02*
X198596250Y-106997500D01*
%TO.N,Net-(D3-A)*%
X216750000Y-94250000D02*
X217646250Y-95146250D01*
X217646250Y-95146250D02*
X217646250Y-106997500D01*
X216750000Y-93750000D02*
X216750000Y-94250000D01*
%TO.N,Net-(D6-A)*%
X178688500Y-130938500D02*
X167976798Y-120226798D01*
X203380066Y-130938500D02*
X178688500Y-130938500D01*
X208271066Y-126047500D02*
X203380066Y-130938500D01*
X167976798Y-120226798D02*
X167976798Y-117307891D01*
X217646250Y-126047500D02*
X208271066Y-126047500D01*
%TO.N,Net-(DLED1-DOUT)*%
X146149000Y-101101000D02*
X146149000Y-125254000D01*
X150500000Y-96750000D02*
X146149000Y-101101000D01*
X146149000Y-125254000D02*
X151295000Y-130400000D01*
%TO.N,GND*%
X207500000Y-76190000D02*
X180560000Y-76190000D01*
X180560000Y-76190000D02*
X169500000Y-87250000D01*
X154795000Y-130400000D02*
X166750000Y-118445000D01*
X161250000Y-79060000D02*
X163620000Y-76690000D01*
X161250000Y-93500000D02*
X161250000Y-79060000D01*
X166750000Y-118445000D02*
X166750000Y-114500000D01*
%TO.N,+5V*%
X151500000Y-103750000D02*
X146750000Y-108500000D01*
X161899000Y-94101000D02*
X161001057Y-94101000D01*
X161001057Y-94101000D02*
X160500000Y-93599943D01*
X159750000Y-103750000D02*
X151500000Y-103750000D01*
X162500000Y-93500000D02*
X161899000Y-94101000D01*
X207500000Y-78730000D02*
X198730000Y-87500000D01*
X160500000Y-93599943D02*
X160500000Y-85187000D01*
X198730000Y-87500000D02*
X171000000Y-87500000D01*
%TO.N,SDA*%
X207500000Y-83810000D02*
X201920000Y-89390000D01*
X201920000Y-89390000D02*
X163620000Y-89390000D01*
%TO.N,SCL*%
X207500000Y-81270000D02*
X200270000Y-88500000D01*
X200270000Y-88500000D02*
X172000000Y-88500000D01*
%TO.N,COL_0*%
X168000000Y-114500000D02*
X168000000Y-110513310D01*
X168000000Y-110513310D02*
X149736690Y-92250000D01*
X185896250Y-104457500D02*
X185896250Y-123507500D01*
X147250000Y-82900000D02*
X148380000Y-81770000D01*
X147250000Y-92250000D02*
X147250000Y-82900000D01*
X149736690Y-92250000D02*
X147250000Y-92250000D01*
%TO.N,COL_1*%
X151000000Y-84500000D02*
X150750000Y-84500000D01*
X150750000Y-84500000D02*
X150560000Y-84310000D01*
X204946250Y-104457500D02*
X204946250Y-123507500D01*
X150560000Y-84310000D02*
X148380000Y-84310000D01*
%TO.N,COL_2*%
X223996250Y-104457500D02*
X223996250Y-123507500D01*
%TO.N,ROT_A*%
X169251057Y-87851000D02*
X163620000Y-82219943D01*
X163620000Y-82219943D02*
X163620000Y-81770000D01*
X173250000Y-85500000D02*
X172099943Y-85500000D01*
X169748943Y-87851000D02*
X169251057Y-87851000D01*
X172099943Y-85500000D02*
X169748943Y-87851000D01*
%TO.N,ROT_SWB*%
X162998000Y-94502000D02*
X153492000Y-94502000D01*
X153492000Y-94502000D02*
X148380000Y-89390000D01*
X165250000Y-92250000D02*
X162998000Y-94502000D01*
%TD*%
M02*
